<svg xmlns="http://www.w3.org/2000/svg" viewBox="0 0 64 64" aria-labelledby="title"
aria-describedby="desc" role="img" xmlns:xlink="http://www.w3.org/1999/xlink">
  <title>Edit</title>
  <desc>A color styled icon from Orion Icon Library.</desc>
  <path data-name="layer3"
  fill="#fff" d="M46.8 11.6H2.4v50h50V17.2"></path>
  <path data-name="layer2" fill="#f27e7c" d="M56.4 13.2L61.6 8 56 2.4l-5.2 5.2"></path>
  <path data-name="layer1" fill="#fbaa51" d="M29.9 28.4l-4 9.7 9.7-4.1 20.8-20.8-5.6-5.6-20.9 20.8z"></path>
  <path data-name="opacity" fill="#000028" opacity=".2" d="M56.4 13.2l-2.8-2.8-27.7 27.7 9.7-4.1 20.8-20.8z"></path>
  <path data-name="opacity" fill="#000028" opacity=".15" d="M52.4 17.2L35.6 34l-9.7 4.1h26.5V17.2zm-50 41.4h50v3h-50z"></path>
  <path data-name="stroke" fill="none" stroke="#2e4369" stroke-linecap="round"
  stroke-linejoin="round" stroke-width="2" d="M46.8 11.6H2.4v50h50V17.2m4-4l5.2-5.1L56 2.4l-5.2 5.2"></path>
  <path data-name="stroke" fill="none" stroke="#2e4369" stroke-linecap="round"
  stroke-linejoin="round" stroke-width="2" d="M29.9 28.4l-4 9.7 9.7-4 20.8-20.9-5.6-5.6-20.9 20.8z"></path>
</svg>